<svg width="304" height="208" viewBox="0 0 304 208" fill="none" xmlns="http://www.w3.org/2000/svg">
<path d="M0 0H304V208H0V0Z" fill="#171717"/>
<path d="M292 24.0999H12V23.8999H292V24.0999Z" fill="url(#paint0_radial_2152_2057)" fill-opacity="0.6"/>
<path d="M292 40.0999H12V39.8999H292V40.0999Z" fill="url(#paint1_radial_2152_2057)" fill-opacity="0.6"/>
<path d="M12 56.0999H292V55.8999H12V56.0999Z" fill="url(#paint2_radial_2152_2057)" fill-opacity="0.6"/>
<path d="M292 72.0999H12V71.8999H292V72.0999Z" fill="url(#paint3_radial_2152_2057)" fill-opacity="0.6"/>
<path d="M12 88.0999H292V87.8999H12V88.0999Z" fill="url(#paint4_radial_2152_2057)" fill-opacity="0.6"/>
<path d="M292 104.1H12V103.9H292V104.1Z" fill="url(#paint5_radial_2152_2057)" fill-opacity="0.6"/>
<path d="M12 120.1H292V119.9H12V120.1Z" fill="url(#paint6_radial_2152_2057)" fill-opacity="0.6"/>
<path d="M292 136.1H12V135.9H292V136.1Z" fill="url(#paint7_radial_2152_2057)" fill-opacity="0.6"/>
<path d="M12 152.1H292V151.9H12V152.1Z" fill="url(#paint8_radial_2152_2057)" fill-opacity="0.6"/>
<path d="M292 168.1H12V167.9H292V168.1Z" fill="url(#paint9_radial_2152_2057)" fill-opacity="0.6"/>
<path d="M12 184.1H292V183.9H12V184.1Z" fill="url(#paint10_radial_2152_2057)" fill-opacity="0.6"/>
<path d="M12 72V136H128L14 104L128 72H12Z" fill="url(#paint11_linear_2152_2057)" fill-opacity="0.8"/>
<path d="M216 48L133 72H292V48H216Z" fill="url(#paint12_linear_2152_2057)" fill-opacity="0.48"/>
<path d="M292 160V136H133L216 160H292Z" fill="url(#paint13_linear_2152_2057)" fill-opacity="0.48"/>
<path fill-rule="evenodd" clip-rule="evenodd" d="M13 71.5H12V72.5H13V71.5ZM17 71.5H15V72.5H17V71.5ZM21 71.5H19V72.5H21V71.5ZM25 71.5H23V72.5H25V71.5ZM29 71.5H27V72.5H29V71.5ZM33 71.5H31V72.5H33V71.5ZM37 71.5H35V72.5H37V71.5ZM41 71.5H39V72.5H41V71.5ZM45 71.5H43V72.5H45V71.5ZM49 71.5H47V72.5H49V71.5ZM53 71.5H51V72.5H53V71.5ZM57 71.5H55V72.5H57V71.5ZM61 71.5H59V72.5H61V71.5ZM65 71.5H63V72.5H65V71.5ZM69 71.5H67V72.5H69V71.5ZM73 71.5H71V72.5H73V71.5ZM77 71.5H75V72.5H77V71.5ZM81 71.5H79V72.5H81V71.5ZM85 71.5H83V72.5H85V71.5ZM89 71.5H87V72.5H89V71.5ZM93 71.5H91V72.5H93V71.5ZM97 71.5H95V72.5H97V71.5ZM101 71.5H99V72.5H101V71.5ZM105 71.5H103V72.5H105V71.5ZM109 71.5H107V72.5H109V71.5ZM113 71.5H111V72.5H113V71.5ZM117 71.5H115V72.5H117V71.5ZM121 71.5H119V72.5H121V71.5ZM125 71.5H123V72.5H125V71.5ZM129 71.5H127V72.5H129V71.5ZM133 71.5H131V72.5H133V71.5ZM137 71.5H135V72.5H137V71.5ZM141 71.5H139V72.5H141V71.5ZM145 71.5H143V72.5H145V71.5ZM149 71.5H147V72.5H149V71.5ZM153 71.5H151V72.5H153V71.5ZM157 71.5H155V72.5H157V71.5ZM161 71.5H159V72.5H161V71.5ZM165 71.5H163V72.5H165V71.5ZM169 71.5H167V72.5H169V71.5ZM173 71.5H171V72.5H173V71.5ZM177 71.5H175V72.5H177V71.5ZM181 71.5H179V72.5H181V71.5ZM185 71.5H183V72.5H185V71.5ZM189 71.5H187V72.5H189V71.5ZM193 71.5H191V72.5H193V71.5ZM197 71.5H195V72.5H197V71.5ZM201 71.5H199V72.5H201V71.5ZM205 71.5H203V72.5H205V71.5ZM209 71.5H207V72.5H209V71.5ZM213 71.5H211V72.5H213V71.5ZM217 71.5H215V72.5H217V71.5ZM221 71.5H219V72.5H221V71.5ZM225 71.5H223V72.5H225V71.5ZM229 71.5H227V72.5H229V71.5ZM233 71.5H231V72.5H233V71.5ZM237 71.5H235V72.5H237V71.5ZM241 71.5H239V72.5H241V71.5ZM245 71.5H243V72.5H245V71.5ZM249 71.5H247V72.5H249V71.5ZM253 71.5H251V72.5H253V71.5ZM257 71.5H255V72.5H257V71.5ZM261 71.5H259V72.5H261V71.5ZM265 71.5H263V72.5H265V71.5ZM269 71.5H267V72.5H269V71.5ZM273 71.5H271V72.5H273V71.5ZM277 71.5H275V72.5H277V71.5ZM281 71.5H279V72.5H281V71.5ZM285 71.5H283V72.5H285V71.5ZM289 71.5H287V72.5H289V71.5ZM292 71.5H291V72.5H292V71.5Z" fill="#484848"/>
<path fill-rule="evenodd" clip-rule="evenodd" d="M13 135.5H12V136.5H13V135.5ZM17 135.5H15V136.5H17V135.5ZM21 135.5H19V136.5H21V135.5ZM25 135.5H23V136.5H25V135.5ZM29 135.5H27V136.5H29V135.5ZM33 135.5H31V136.5H33V135.5ZM37 135.5H35V136.5H37V135.5ZM41 135.5H39V136.5H41V135.5ZM45 135.5H43V136.5H45V135.5ZM49 135.5H47V136.5H49V135.5ZM53 135.5H51V136.5H53V135.5ZM57 135.5H55V136.5H57V135.5ZM61 135.5H59V136.5H61V135.5ZM65 135.5H63V136.5H65V135.5ZM69 135.5H67V136.5H69V135.5ZM73 135.5H71V136.5H73V135.5ZM77 135.5H75V136.5H77V135.5ZM81 135.5H79V136.5H81V135.5ZM85 135.5H83V136.5H85V135.5ZM89 135.5H87V136.5H89V135.5ZM93 135.5H91V136.5H93V135.5ZM97 135.5H95V136.5H97V135.5ZM101 135.5H99V136.5H101V135.5ZM105 135.5H103V136.5H105V135.5ZM109 135.5H107V136.5H109V135.5ZM113 135.5H111V136.5H113V135.5ZM117 135.5H115V136.5H117V135.5ZM121 135.5H119V136.5H121V135.5ZM125 135.5H123V136.5H125V135.5ZM129 135.5H127V136.5H129V135.5ZM133 135.5H131V136.5H133V135.5ZM137 135.5H135V136.5H137V135.5ZM141 135.5H139V136.5H141V135.5ZM145 135.5H143V136.5H145V135.5ZM149 135.5H147V136.5H149V135.5ZM153 135.5H151V136.5H153V135.5ZM157 135.5H155V136.5H157V135.5ZM161 135.5H159V136.5H161V135.5ZM165 135.5H163V136.5H165V135.5ZM169 135.5H167V136.5H169V135.5ZM173 135.5H171V136.5H173V135.5ZM177 135.5H175V136.5H177V135.5ZM181 135.5H179V136.5H181V135.5ZM185 135.5H183V136.5H185V135.5ZM189 135.5H187V136.5H189V135.5ZM193 135.5H191V136.5H193V135.5ZM197 135.5H195V136.5H197V135.5ZM201 135.5H199V136.5H201V135.5ZM205 135.5H203V136.5H205V135.5ZM209 135.5H207V136.5H209V135.5ZM213 135.5H211V136.5H213V135.5ZM217 135.5H215V136.5H217V135.5ZM221 135.5H219V136.5H221V135.5ZM225 135.5H223V136.5H225V135.5ZM229 135.5H227V136.5H229V135.5ZM233 135.5H231V136.5H233V135.5ZM237 135.5H235V136.5H237V135.5ZM241 135.5H239V136.5H241V135.5ZM245 135.5H243V136.5H245V135.5ZM249 135.5H247V136.5H249V135.5ZM253 135.5H251V136.5H253V135.5ZM257 135.5H255V136.5H257V135.5ZM261 135.5H259V136.5H261V135.5ZM265 135.5H263V136.5H265V135.5ZM269 135.5H267V136.5H269V135.5ZM273 135.5H271V136.5H273V135.5ZM277 135.5H275V136.5H277V135.5ZM281 135.5H279V136.5H281V135.5ZM285 135.5H283V136.5H285V135.5ZM289 135.5H287V136.5H289V135.5ZM292 135.5H291V136.5H292V135.5Z" fill="#484848"/>
<path d="M126.354 136L11.7822 104L126.354 72H133.788L19.217 104L133.788 136H126.354Z" fill="#16CA83"/>
<path d="M133.789 72L216.137 49H292V47H215.863L126.354 72H133.789Z" fill="#5C5C5C"/>
<path d="M133.789 136L216.137 159H292V161H215.863L126.354 136H133.789Z" fill="#5C5C5C"/>
<defs>
<radialGradient id="paint0_radial_2152_2057" cx="0" cy="0" r="1" gradientUnits="userSpaceOnUse" gradientTransform="translate(152 104) rotate(90) scale(124.503 419.278)">
<stop stop-color="#666666" stop-opacity="0.64"/>
<stop offset="1" stop-color="#333333" stop-opacity="0"/>
</radialGradient>
<radialGradient id="paint1_radial_2152_2057" cx="0" cy="0" r="1" gradientUnits="userSpaceOnUse" gradientTransform="translate(152 104) rotate(90) scale(124.503 419.278)">
<stop stop-color="#666666" stop-opacity="0.64"/>
<stop offset="1" stop-color="#333333" stop-opacity="0"/>
</radialGradient>
<radialGradient id="paint2_radial_2152_2057" cx="0" cy="0" r="1" gradientUnits="userSpaceOnUse" gradientTransform="translate(152 104) rotate(90) scale(124.503 419.278)">
<stop stop-color="#666666" stop-opacity="0.64"/>
<stop offset="1" stop-color="#333333" stop-opacity="0"/>
</radialGradient>
<radialGradient id="paint3_radial_2152_2057" cx="0" cy="0" r="1" gradientUnits="userSpaceOnUse" gradientTransform="translate(152 104) rotate(90) scale(124.503 419.278)">
<stop stop-color="#666666" stop-opacity="0.64"/>
<stop offset="1" stop-color="#333333" stop-opacity="0"/>
</radialGradient>
<radialGradient id="paint4_radial_2152_2057" cx="0" cy="0" r="1" gradientUnits="userSpaceOnUse" gradientTransform="translate(152 104) rotate(90) scale(124.503 419.278)">
<stop stop-color="#666666" stop-opacity="0.64"/>
<stop offset="1" stop-color="#333333" stop-opacity="0"/>
</radialGradient>
<radialGradient id="paint5_radial_2152_2057" cx="0" cy="0" r="1" gradientUnits="userSpaceOnUse" gradientTransform="translate(152 104) rotate(90) scale(124.503 419.278)">
<stop stop-color="#666666" stop-opacity="0.64"/>
<stop offset="1" stop-color="#333333" stop-opacity="0"/>
</radialGradient>
<radialGradient id="paint6_radial_2152_2057" cx="0" cy="0" r="1" gradientUnits="userSpaceOnUse" gradientTransform="translate(152 104) rotate(90) scale(124.503 419.278)">
<stop stop-color="#666666" stop-opacity="0.64"/>
<stop offset="1" stop-color="#333333" stop-opacity="0"/>
</radialGradient>
<radialGradient id="paint7_radial_2152_2057" cx="0" cy="0" r="1" gradientUnits="userSpaceOnUse" gradientTransform="translate(152 104) rotate(90) scale(124.503 419.278)">
<stop stop-color="#666666" stop-opacity="0.64"/>
<stop offset="1" stop-color="#333333" stop-opacity="0"/>
</radialGradient>
<radialGradient id="paint8_radial_2152_2057" cx="0" cy="0" r="1" gradientUnits="userSpaceOnUse" gradientTransform="translate(152 104) rotate(90) scale(124.503 419.278)">
<stop stop-color="#666666" stop-opacity="0.64"/>
<stop offset="1" stop-color="#333333" stop-opacity="0"/>
</radialGradient>
<radialGradient id="paint9_radial_2152_2057" cx="0" cy="0" r="1" gradientUnits="userSpaceOnUse" gradientTransform="translate(152 104) rotate(90) scale(124.503 419.278)">
<stop stop-color="#666666" stop-opacity="0.64"/>
<stop offset="1" stop-color="#333333" stop-opacity="0"/>
</radialGradient>
<radialGradient id="paint10_radial_2152_2057" cx="0" cy="0" r="1" gradientUnits="userSpaceOnUse" gradientTransform="translate(152 104) rotate(90) scale(124.503 419.278)">
<stop stop-color="#666666" stop-opacity="0.64"/>
<stop offset="1" stop-color="#333333" stop-opacity="0"/>
</radialGradient>
<linearGradient id="paint11_linear_2152_2057" x1="88.7647" y1="72" x2="88.7647" y2="136" gradientUnits="userSpaceOnUse">
<stop offset="0.0001" stop-color="#10935F" stop-opacity="0.12"/>
<stop offset="0.245258" stop-color="#10935F" stop-opacity="0.2"/>
<stop offset="0.50065" stop-color="#10935F" stop-opacity="0.32"/>
<stop offset="0.739583" stop-color="#10935F" stop-opacity="0.2"/>
<stop offset="1" stop-color="#10935F" stop-opacity="0.12"/>
</linearGradient>
<linearGradient id="paint12_linear_2152_2057" x1="294.528" y1="48" x2="292.58" y2="160.506" gradientUnits="userSpaceOnUse">
<stop stop-color="#333333" stop-opacity="0.48"/>
<stop offset="0.213439" stop-color="#333333" stop-opacity="0.24"/>
<stop offset="0.497246" stop-color="#333333" stop-opacity="0.12"/>
<stop offset="0.78222" stop-color="#333333" stop-opacity="0.24"/>
<stop offset="1" stop-color="#333333" stop-opacity="0.48"/>
</linearGradient>
<linearGradient id="paint13_linear_2152_2057" x1="294.528" y1="48" x2="292.58" y2="160.506" gradientUnits="userSpaceOnUse">
<stop stop-color="#333333" stop-opacity="0.48"/>
<stop offset="0.213439" stop-color="#333333" stop-opacity="0.24"/>
<stop offset="0.497246" stop-color="#333333" stop-opacity="0.12"/>
<stop offset="0.78222" stop-color="#333333" stop-opacity="0.24"/>
<stop offset="1" stop-color="#333333" stop-opacity="0.48"/>
</linearGradient>
</defs>
</svg>
