<svg width="304" height="208" viewBox="0 0 304 208" fill="none" xmlns="http://www.w3.org/2000/svg">
<path d="M0 0H304V208H0V0Z" fill="#171717"/>
<path d="M292 24.0999H12V23.8999H292V24.0999Z" fill="url(#paint0_radial_2156_2082)" fill-opacity="0.6"/>
<path d="M292 40.0999H12V39.8999H292V40.0999Z" fill="url(#paint1_radial_2156_2082)" fill-opacity="0.6"/>
<path d="M12 56.0999H292V55.8999H12V56.0999Z" fill="url(#paint2_radial_2156_2082)" fill-opacity="0.6"/>
<path d="M292 72.0999H12V71.8999H292V72.0999Z" fill="url(#paint3_radial_2156_2082)" fill-opacity="0.6"/>
<path d="M12 88.0999H292V87.8999H12V88.0999Z" fill="url(#paint4_radial_2156_2082)" fill-opacity="0.6"/>
<path d="M292 104.1H12V103.9H292V104.1Z" fill="url(#paint5_radial_2156_2082)" fill-opacity="0.6"/>
<path d="M12 120.1H292V119.9H12V120.1Z" fill="url(#paint6_radial_2156_2082)" fill-opacity="0.6"/>
<path d="M292 136.1H12V135.9H292V136.1Z" fill="url(#paint7_radial_2156_2082)" fill-opacity="0.6"/>
<path d="M12 152.1H292V151.9H12V152.1Z" fill="url(#paint8_radial_2156_2082)" fill-opacity="0.6"/>
<path d="M292 168.1H12V167.9H292V168.1Z" fill="url(#paint9_radial_2156_2082)" fill-opacity="0.6"/>
<path d="M12 184.1H292V183.9H12V184.1Z" fill="url(#paint10_radial_2156_2082)" fill-opacity="0.6"/>
<path d="M12 48V88L140 47.5L12 48Z" fill="url(#paint11_linear_2156_2082)" fill-opacity="0.8"/>
<path d="M141 160.5L12 120V160.5H141Z" fill="url(#paint12_linear_2156_2082)" fill-opacity="0.8"/>
<path d="M216 184L143 160.5H292V184H216Z" fill="url(#paint13_linear_2156_2082)" fill-opacity="0.48"/>
<path d="M143 47.5L216 24.5H292V47.5H143Z" fill="url(#paint14_linear_2156_2082)" fill-opacity="0.48"/>
<path fill-rule="evenodd" clip-rule="evenodd" d="M13 47H12V48H13V47ZM17 47H15V48H17V47ZM21 47H19V48H21V47ZM25 47H23V48H25V47ZM29 47H27V48H29V47ZM33 47H31V48H33V47ZM37 47H35V48H37V47ZM41 47H39V48H41V47ZM45 47H43V48H45V47ZM49 47H47V48H49V47ZM53 47H51V48H53V47ZM57 47H55V48H57V47ZM61 47H59V48H61V47ZM65 47H63V48H65V47ZM69 47H67V48H69V47ZM73 47H71V48H73V47ZM77 47H75V48H77V47ZM81 47H79V48H81V47ZM85 47H83V48H85V47ZM89 47H87V48H89V47ZM93 47H91V48H93V47ZM97 47H95V48H97V47ZM101 47H99V48H101V47ZM105 47H103V48H105V47ZM109 47H107V48H109V47ZM113 47H111V48H113V47ZM117 47H115V48H117V47ZM121 47H119V48H121V47ZM125 47H123V48H125V47ZM129 47H127V48H129V47ZM133 47H131V48H133V47ZM137 47H135V48H137V47ZM141 47H139V48H141V47ZM145 47H143V48H145V47ZM149 47H147V48H149V47ZM153 47H151V48H153V47ZM157 47H155V48H157V47ZM161 47H159V48H161V47ZM165 47H163V48H165V47ZM169 47H167V48H169V47ZM173 47H171V48H173V47ZM177 47H175V48H177V47ZM181 47H179V48H181V47ZM185 47H183V48H185V47ZM189 47H187V48H189V47ZM193 47H191V48H193V47ZM197 47H195V48H197V47ZM201 47H199V48H201V47ZM205 47H203V48H205V47ZM209 47H207V48H209V47ZM213 47H211V48H213V47ZM217 47H215V48H217V47ZM221 47H219V48H221V47ZM225 47H223V48H225V47ZM229 47H227V48H229V47ZM233 47H231V48H233V47ZM237 47H235V48H237V47ZM241 47H239V48H241V47ZM245 47H243V48H245V47ZM249 47H247V48H249V47ZM253 47H251V48H253V47ZM257 47H255V48H257V47ZM261 47H259V48H261V47ZM265 47H263V48H265V47ZM269 47H267V48H269V47ZM273 47H271V48H273V47ZM277 47H275V48H277V47ZM281 47H279V48H281V47ZM285 47H283V48H285V47ZM289 47H287V48H289V47ZM292 47H291V48H292V47Z" fill="#484848"/>
<path fill-rule="evenodd" clip-rule="evenodd" d="M13 160H12V161H13V160ZM17 160H15V161H17V160ZM21 160H19V161H21V160ZM25 160H23V161H25V160ZM29 160H27V161H29V160ZM33 160H31V161H33V160ZM37 160H35V161H37V160ZM41 160H39V161H41V160ZM45 160H43V161H45V160ZM49 160H47V161H49V160ZM53 160H51V161H53V160ZM57 160H55V161H57V160ZM61 160H59V161H61V160ZM65 160H63V161H65V160ZM69 160H67V161H69V160ZM73 160H71V161H73V160ZM77 160H75V161H77V160ZM81 160H79V161H81V160ZM85 160H83V161H85V160ZM89 160H87V161H89V160ZM93 160H91V161H93V160ZM97 160H95V161H97V160ZM101 160H99V161H101V160ZM105 160H103V161H105V160ZM109 160H107V161H109V160ZM113 160H111V161H113V160ZM117 160H115V161H117V160ZM121 160H119V161H121V160ZM125 160H123V161H125V160ZM129 160H127V161H129V160ZM133 160H131V161H133V160ZM137 160H135V161H137V160ZM141 160H139V161H141V160ZM145 160H143V161H145V160ZM149 160H147V161H149V160ZM153 160H151V161H153V160ZM157 160H155V161H157V160ZM161 160H159V161H161V160ZM165 160H163V161H165V160ZM169 160H167V161H169V160ZM173 160H171V161H173V160ZM177 160H175V161H177V160ZM181 160H179V161H181V160ZM185 160H183V161H185V160ZM189 160H187V161H189V160ZM193 160H191V161H193V160ZM197 160H195V161H197V160ZM201 160H199V161H201V160ZM205 160H203V161H205V160ZM209 160H207V161H209V160ZM213 160H211V161H213V160ZM217 160H215V161H217V160ZM221 160H219V161H221V160ZM225 160H223V161H225V160ZM229 160H227V161H229V160ZM233 160H231V161H233V160ZM237 160H235V161H237V160ZM241 160H239V161H241V160ZM245 160H243V161H245V160ZM249 160H247V161H249V160ZM253 160H251V161H253V160ZM257 160H255V161H257V160ZM261 160H259V161H261V160ZM265 160H263V161H265V160ZM269 160H267V161H269V160ZM273 160H271V161H273V160ZM277 160H275V161H277V160ZM281 160H279V161H281V160ZM285 160H283V161H285V160ZM289 160H287V161H289V160ZM292 160H291V161H292V160Z" fill="#484848"/>
<path d="M146.372 47L216.153 25H292V23H215.846L139.721 47H146.372Z" fill="#5C5C5C"/>
<path d="M146.372 161L216.153 183H292V185H215.846L139.721 161H146.372Z" fill="#5C5C5C"/>
<path d="M12 87.2668V120.733L139.721 161H146.373L14 119.267V88.7333L146.373 47H139.721L12 87.2668Z" fill="#16CA83"/>
<defs>
<radialGradient id="paint0_radial_2156_2082" cx="0" cy="0" r="1" gradientUnits="userSpaceOnUse" gradientTransform="translate(152 104) rotate(90) scale(124.503 419.278)">
<stop stop-color="#666666" stop-opacity="0.64"/>
<stop offset="1" stop-color="#333333" stop-opacity="0"/>
</radialGradient>
<radialGradient id="paint1_radial_2156_2082" cx="0" cy="0" r="1" gradientUnits="userSpaceOnUse" gradientTransform="translate(152 104) rotate(90) scale(124.503 419.278)">
<stop stop-color="#666666" stop-opacity="0.64"/>
<stop offset="1" stop-color="#333333" stop-opacity="0"/>
</radialGradient>
<radialGradient id="paint2_radial_2156_2082" cx="0" cy="0" r="1" gradientUnits="userSpaceOnUse" gradientTransform="translate(152 104) rotate(90) scale(124.503 419.278)">
<stop stop-color="#666666" stop-opacity="0.64"/>
<stop offset="1" stop-color="#333333" stop-opacity="0"/>
</radialGradient>
<radialGradient id="paint3_radial_2156_2082" cx="0" cy="0" r="1" gradientUnits="userSpaceOnUse" gradientTransform="translate(152 104) rotate(90) scale(124.503 419.278)">
<stop stop-color="#666666" stop-opacity="0.64"/>
<stop offset="1" stop-color="#333333" stop-opacity="0"/>
</radialGradient>
<radialGradient id="paint4_radial_2156_2082" cx="0" cy="0" r="1" gradientUnits="userSpaceOnUse" gradientTransform="translate(152 104) rotate(90) scale(124.503 419.278)">
<stop stop-color="#666666" stop-opacity="0.64"/>
<stop offset="1" stop-color="#333333" stop-opacity="0"/>
</radialGradient>
<radialGradient id="paint5_radial_2156_2082" cx="0" cy="0" r="1" gradientUnits="userSpaceOnUse" gradientTransform="translate(152 104) rotate(90) scale(124.503 419.278)">
<stop stop-color="#666666" stop-opacity="0.64"/>
<stop offset="1" stop-color="#333333" stop-opacity="0"/>
</radialGradient>
<radialGradient id="paint6_radial_2156_2082" cx="0" cy="0" r="1" gradientUnits="userSpaceOnUse" gradientTransform="translate(152 104) rotate(90) scale(124.503 419.278)">
<stop stop-color="#666666" stop-opacity="0.64"/>
<stop offset="1" stop-color="#333333" stop-opacity="0"/>
</radialGradient>
<radialGradient id="paint7_radial_2156_2082" cx="0" cy="0" r="1" gradientUnits="userSpaceOnUse" gradientTransform="translate(152 104) rotate(90) scale(124.503 419.278)">
<stop stop-color="#666666" stop-opacity="0.64"/>
<stop offset="1" stop-color="#333333" stop-opacity="0"/>
</radialGradient>
<radialGradient id="paint8_radial_2156_2082" cx="0" cy="0" r="1" gradientUnits="userSpaceOnUse" gradientTransform="translate(152 104) rotate(90) scale(124.503 419.278)">
<stop stop-color="#666666" stop-opacity="0.64"/>
<stop offset="1" stop-color="#333333" stop-opacity="0"/>
</radialGradient>
<radialGradient id="paint9_radial_2156_2082" cx="0" cy="0" r="1" gradientUnits="userSpaceOnUse" gradientTransform="translate(152 104) rotate(90) scale(124.503 419.278)">
<stop stop-color="#666666" stop-opacity="0.64"/>
<stop offset="1" stop-color="#333333" stop-opacity="0"/>
</radialGradient>
<radialGradient id="paint10_radial_2156_2082" cx="0" cy="0" r="1" gradientUnits="userSpaceOnUse" gradientTransform="translate(152 104) rotate(90) scale(124.503 419.278)">
<stop stop-color="#666666" stop-opacity="0.64"/>
<stop offset="1" stop-color="#333333" stop-opacity="0"/>
</radialGradient>
<linearGradient id="paint11_linear_2156_2082" x1="97.3677" y1="47.5" x2="97.3677" y2="160.5" gradientUnits="userSpaceOnUse">
<stop offset="0.0001" stop-color="#10935F" stop-opacity="0.12"/>
<stop offset="0.216666" stop-color="#10935F" stop-opacity="0.2"/>
<stop offset="0.358393" stop-color="#10935F" stop-opacity="0.32"/>
<stop offset="0.640625" stop-color="#10935F" stop-opacity="0.32"/>
<stop offset="0.783571" stop-color="#10935F" stop-opacity="0.2"/>
<stop offset="1" stop-color="#10935F" stop-opacity="0.12"/>
</linearGradient>
<linearGradient id="paint12_linear_2156_2082" x1="97.3677" y1="47.5" x2="97.3677" y2="160.5" gradientUnits="userSpaceOnUse">
<stop offset="0.0001" stop-color="#10935F" stop-opacity="0.12"/>
<stop offset="0.216666" stop-color="#10935F" stop-opacity="0.2"/>
<stop offset="0.358393" stop-color="#10935F" stop-opacity="0.32"/>
<stop offset="0.640625" stop-color="#10935F" stop-opacity="0.32"/>
<stop offset="0.783571" stop-color="#10935F" stop-opacity="0.2"/>
<stop offset="1" stop-color="#10935F" stop-opacity="0.12"/>
</linearGradient>
<linearGradient id="paint13_linear_2156_2082" x1="294.369" y1="24.5" x2="290.156" y2="184.657" gradientUnits="userSpaceOnUse">
<stop stop-color="#333333" stop-opacity="0.48"/>
<stop offset="0.144021" stop-color="#333333" stop-opacity="0.24"/>
<stop offset="0.497246" stop-color="#333333" stop-opacity="0.12"/>
<stop offset="0.847929" stop-color="#333333" stop-opacity="0.24"/>
<stop offset="1" stop-color="#333333" stop-opacity="0.48"/>
</linearGradient>
<linearGradient id="paint14_linear_2156_2082" x1="294.369" y1="24.5" x2="290.156" y2="184.657" gradientUnits="userSpaceOnUse">
<stop stop-color="#333333" stop-opacity="0.48"/>
<stop offset="0.144021" stop-color="#333333" stop-opacity="0.24"/>
<stop offset="0.497246" stop-color="#333333" stop-opacity="0.12"/>
<stop offset="0.847929" stop-color="#333333" stop-opacity="0.24"/>
<stop offset="1" stop-color="#333333" stop-opacity="0.48"/>
</linearGradient>
</defs>
</svg>
