<svg width="304" height="208" viewBox="0 0 304 208" fill="none" xmlns="http://www.w3.org/2000/svg">
<path d="M0 0H304V208H0V0Z" fill="#171717"/>
<path d="M292 24.1H12V23.9H292V24.1Z" fill="url(#paint0_radial_2141_3993)" fill-opacity="0.6"/>
<path d="M292 40.1H12V39.9H292V40.1Z" fill="url(#paint1_radial_2141_3993)" fill-opacity="0.6"/>
<path d="M12 56.1H292V55.9H12V56.1Z" fill="url(#paint2_radial_2141_3993)" fill-opacity="0.6"/>
<path d="M292 72.1H12V71.9H292V72.1Z" fill="url(#paint3_radial_2141_3993)" fill-opacity="0.6"/>
<path d="M12 88.1H292V87.9H12V88.1Z" fill="url(#paint4_radial_2141_3993)" fill-opacity="0.6"/>
<path d="M292 104.1H12V103.9H292V104.1Z" fill="url(#paint5_radial_2141_3993)" fill-opacity="0.6"/>
<path d="M12 120.1H292V119.9H12V120.1Z" fill="url(#paint6_radial_2141_3993)" fill-opacity="0.6"/>
<path d="M292 136.1H12V135.9H292V136.1Z" fill="url(#paint7_radial_2141_3993)" fill-opacity="0.6"/>
<path d="M12 152.1H292V151.9H12V152.1Z" fill="url(#paint8_radial_2141_3993)" fill-opacity="0.6"/>
<path d="M292 168.1H12V167.9H292V168.1Z" fill="url(#paint9_radial_2141_3993)" fill-opacity="0.6"/>
<path d="M12 184.1H292V183.9H12V184.1Z" fill="url(#paint10_radial_2141_3993)" fill-opacity="0.6"/>
<path d="M12 72V104H154L120 72H12Z" fill="url(#paint11_linear_2141_3993)" fill-opacity="0.48"/>
<path d="M292 104V184H249L156 104H292Z" fill="url(#paint12_linear_2141_3993)" fill-opacity="0.8"/>
<path fill-rule="evenodd" clip-rule="evenodd" d="M13 104.5H12V103.5H13V104.5ZM17 104.5H15V103.5H17V104.5ZM21 104.5H19V103.5H21V104.5ZM25 104.5H23V103.5H25V104.5ZM29 104.5H27V103.5H29V104.5ZM33 104.5H31V103.5H33V104.5ZM37 104.5H35V103.5H37V104.5ZM41 104.5H39V103.5H41V104.5ZM45 104.5H43V103.5H45V104.5ZM49 104.5H47V103.5H49V104.5ZM53 104.5H51V103.5H53V104.5ZM57 104.5H55V103.5H57V104.5ZM61 104.5H59V103.5H61V104.5ZM65 104.5H63V103.5H65V104.5ZM69 104.5H67V103.5H69V104.5ZM73 104.5H71V103.5H73V104.5ZM77 104.5H75V103.5H77V104.5ZM81 104.5H79V103.5H81V104.5ZM85 104.5H83V103.5H85V104.5ZM89 104.5H87V103.5H89V104.5ZM93 104.5H91V103.5H93V104.5ZM97 104.5H95V103.5H97V104.5ZM101 104.5H99V103.5H101V104.5ZM105 104.5H103V103.5H105V104.5ZM109 104.5H107V103.5H109V104.5ZM113 104.5H111V103.5H113V104.5ZM117 104.5H115V103.5H117V104.5ZM121 104.5H119V103.5H121V104.5ZM125 104.5H123V103.5H125V104.5ZM129 104.5H127V103.5H129V104.5ZM133 104.5H131V103.5H133V104.5ZM137 104.5H135V103.5H137V104.5ZM141 104.5H139V103.5H141V104.5ZM145 104.5H143V103.5H145V104.5ZM149 104.5H147V103.5H149V104.5ZM153 104.5H151V103.5H153V104.5ZM157 104.5H155V103.5H157V104.5ZM161 104.5H159V103.5H161V104.5ZM165 104.5H163V103.5H165V104.5ZM169 104.5H167V103.5H169V104.5ZM173 104.5H171V103.5H173V104.5ZM177 104.5H175V103.5H177V104.5ZM181 104.5H179V103.5H181V104.5ZM185 104.5H183V103.5H185V104.5ZM189 104.5H187V103.5H189V104.5ZM193 104.5H191V103.5H193V104.5ZM197 104.5H195V103.5H197V104.5ZM201 104.5H199V103.5H201V104.5ZM205 104.5H203V103.5H205V104.5ZM209 104.5H207V103.5H209V104.5ZM213 104.5H211V103.5H213V104.5ZM217 104.5H215V103.5H217V104.5ZM221 104.5H219V103.5H221V104.5ZM225 104.5H223V103.5H225V104.5ZM229 104.5H227V103.5H229V104.5ZM233 104.5H231V103.5H233V104.5ZM237 104.5H235V103.5H237V104.5ZM241 104.5H239V103.5H241V104.5ZM245 104.5H243V103.5H245V104.5ZM249 104.5H247V103.5H249V104.5ZM253 104.5H251V103.5H253V104.5ZM257 104.5H255V103.5H257V104.5ZM261 104.5H259V103.5H261V104.5ZM265 104.5H263V103.5H265V104.5ZM269 104.5H267V103.5H269V104.5ZM273 104.5H271V103.5H273V104.5ZM277 104.5H275V103.5H277V104.5ZM281 104.5H279V103.5H281V104.5ZM285 104.5H283V103.5H285V104.5ZM289 104.5H287V103.5H289V104.5ZM292 104.5H291V103.5H292V104.5Z" fill="#484848"/>
<path d="M158.09 104H155.053L247.341 184.753C247.524 184.912 247.758 185 248 185H291C291.552 185 292 184.552 292 184C292 183.448 291.552 183 291 183H248.376L158.09 104Z" fill="#16CA83"/>
<path d="M155.053 104L119.624 73H13C12.4477 73 12 72.5523 12 72C12 71.4477 12.4477 71 13 71H120C120.242 71 120.476 71.0879 120.659 71.2474L158.09 104H155.053Z" fill="#5C5C5C"/>
<defs>
<radialGradient id="paint0_radial_2141_3993" cx="0" cy="0" r="1" gradientUnits="userSpaceOnUse" gradientTransform="translate(152 104) rotate(90) scale(124.503 419.278)">
<stop stop-color="#666666" stop-opacity="0.64"/>
<stop offset="1" stop-color="#333333" stop-opacity="0"/>
</radialGradient>
<radialGradient id="paint1_radial_2141_3993" cx="0" cy="0" r="1" gradientUnits="userSpaceOnUse" gradientTransform="translate(152 104) rotate(90) scale(124.503 419.278)">
<stop stop-color="#666666" stop-opacity="0.64"/>
<stop offset="1" stop-color="#333333" stop-opacity="0"/>
</radialGradient>
<radialGradient id="paint2_radial_2141_3993" cx="0" cy="0" r="1" gradientUnits="userSpaceOnUse" gradientTransform="translate(152 104) rotate(90) scale(124.503 419.278)">
<stop stop-color="#666666" stop-opacity="0.64"/>
<stop offset="1" stop-color="#333333" stop-opacity="0"/>
</radialGradient>
<radialGradient id="paint3_radial_2141_3993" cx="0" cy="0" r="1" gradientUnits="userSpaceOnUse" gradientTransform="translate(152 104) rotate(90) scale(124.503 419.278)">
<stop stop-color="#666666" stop-opacity="0.64"/>
<stop offset="1" stop-color="#333333" stop-opacity="0"/>
</radialGradient>
<radialGradient id="paint4_radial_2141_3993" cx="0" cy="0" r="1" gradientUnits="userSpaceOnUse" gradientTransform="translate(152 104) rotate(90) scale(124.503 419.278)">
<stop stop-color="#666666" stop-opacity="0.64"/>
<stop offset="1" stop-color="#333333" stop-opacity="0"/>
</radialGradient>
<radialGradient id="paint5_radial_2141_3993" cx="0" cy="0" r="1" gradientUnits="userSpaceOnUse" gradientTransform="translate(152 104) rotate(90) scale(124.503 419.278)">
<stop stop-color="#666666" stop-opacity="0.64"/>
<stop offset="1" stop-color="#333333" stop-opacity="0"/>
</radialGradient>
<radialGradient id="paint6_radial_2141_3993" cx="0" cy="0" r="1" gradientUnits="userSpaceOnUse" gradientTransform="translate(152 104) rotate(90) scale(124.503 419.278)">
<stop stop-color="#666666" stop-opacity="0.64"/>
<stop offset="1" stop-color="#333333" stop-opacity="0"/>
</radialGradient>
<radialGradient id="paint7_radial_2141_3993" cx="0" cy="0" r="1" gradientUnits="userSpaceOnUse" gradientTransform="translate(152 104) rotate(90) scale(124.503 419.278)">
<stop stop-color="#666666" stop-opacity="0.64"/>
<stop offset="1" stop-color="#333333" stop-opacity="0"/>
</radialGradient>
<radialGradient id="paint8_radial_2141_3993" cx="0" cy="0" r="1" gradientUnits="userSpaceOnUse" gradientTransform="translate(152 104) rotate(90) scale(124.503 419.278)">
<stop stop-color="#666666" stop-opacity="0.64"/>
<stop offset="1" stop-color="#333333" stop-opacity="0"/>
</radialGradient>
<radialGradient id="paint9_radial_2141_3993" cx="0" cy="0" r="1" gradientUnits="userSpaceOnUse" gradientTransform="translate(152 104) rotate(90) scale(124.503 419.278)">
<stop stop-color="#666666" stop-opacity="0.64"/>
<stop offset="1" stop-color="#333333" stop-opacity="0"/>
</radialGradient>
<radialGradient id="paint10_radial_2141_3993" cx="0" cy="0" r="1" gradientUnits="userSpaceOnUse" gradientTransform="translate(152 104) rotate(90) scale(124.503 419.278)">
<stop stop-color="#666666" stop-opacity="0.64"/>
<stop offset="1" stop-color="#333333" stop-opacity="0"/>
</radialGradient>
<linearGradient id="paint11_linear_2141_3993" x1="106" y1="104" x2="105.905" y2="72.2505" gradientUnits="userSpaceOnUse">
<stop stop-color="#333333" stop-opacity="0.12"/>
<stop offset="0.395733" stop-color="#333333" stop-opacity="0.24"/>
<stop offset="1" stop-color="#333333" stop-opacity="0.48"/>
</linearGradient>
<linearGradient id="paint12_linear_2141_3993" x1="246" y1="184" x2="246" y2="104" gradientUnits="userSpaceOnUse">
<stop offset="0.0001" stop-color="#10935F" stop-opacity="0.12"/>
<stop offset="0.489583" stop-color="#10935F" stop-opacity="0.2"/>
<stop offset="1" stop-color="#10935F" stop-opacity="0.32"/>
</linearGradient>
</defs>
</svg>
