<svg width="304" height="208" viewBox="0 0 304 208" fill="none" xmlns="http://www.w3.org/2000/svg">
<path d="M0 0H304V208H0V0Z" fill="#171717"/>
<path d="M292 24.1H12V23.9H292V24.1Z" fill="url(#paint0_radial_1459_1775)" fill-opacity="0.6"/>
<path d="M292 40.1H12V39.9H292V40.1Z" fill="url(#paint1_radial_1459_1775)" fill-opacity="0.6"/>
<path d="M12 56.1H292V55.9H12V56.1Z" fill="url(#paint2_radial_1459_1775)" fill-opacity="0.6"/>
<path d="M292 72.1H12V71.9H292V72.1Z" fill="url(#paint3_radial_1459_1775)" fill-opacity="0.6"/>
<path d="M12 88.1H292V87.9H12V88.1Z" fill="url(#paint4_radial_1459_1775)" fill-opacity="0.6"/>
<path d="M292 104.1H12V103.9H292V104.1Z" fill="url(#paint5_radial_1459_1775)" fill-opacity="0.6"/>
<path d="M12 120.1H292V119.9H12V120.1Z" fill="url(#paint6_radial_1459_1775)" fill-opacity="0.6"/>
<path d="M292 136.1H12V135.9H292V136.1Z" fill="url(#paint7_radial_1459_1775)" fill-opacity="0.6"/>
<path d="M12 152.1H292V151.9H12V152.1Z" fill="url(#paint8_radial_1459_1775)" fill-opacity="0.6"/>
<path d="M292 168.1H12V167.9H292V168.1Z" fill="url(#paint9_radial_1459_1775)" fill-opacity="0.6"/>
<path d="M12 184.1H292V183.9H12V184.1Z" fill="url(#paint10_radial_1459_1775)" fill-opacity="0.6"/>
<path d="M12 72V104V168H167L17 104L112 72H12Z" fill="url(#paint11_linear_1459_1775)" fill-opacity="0.48"/>
<path d="M292 196H232L166 168H292V196Z" fill="url(#paint12_linear_1459_1775)" fill-opacity="0.8"/>
<path d="M292 13V72H113L292 13Z" fill="url(#paint13_linear_1459_1775)" fill-opacity="0.8"/>
<path fill-rule="evenodd" clip-rule="evenodd" d="M13 168.5H12V167.5H13V168.5ZM17 168.5H15V167.5H17V168.5ZM21 168.5H19V167.5H21V168.5ZM25 168.5H23V167.5H25V168.5ZM29 168.5H27V167.5H29V168.5ZM33 168.5H31V167.5H33V168.5ZM37 168.5H35V167.5H37V168.5ZM41 168.5H39V167.5H41V168.5ZM45 168.5H43V167.5H45V168.5ZM49 168.5H47V167.5H49V168.5ZM53 168.5H51V167.5H53V168.5ZM57 168.5H55V167.5H57V168.5ZM61 168.5H59V167.5H61V168.5ZM65 168.5H63V167.5H65V168.5ZM69 168.5H67V167.5H69V168.5ZM73 168.5H71V167.5H73V168.5ZM77 168.5H75V167.5H77V168.5ZM81 168.5H79V167.5H81V168.5ZM85 168.5H83V167.5H85V168.5ZM89 168.5H87V167.5H89V168.5ZM93 168.5H91V167.5H93V168.5ZM97 168.5H95V167.5H97V168.5ZM101 168.5H99V167.5H101V168.5ZM105 168.5H103V167.5H105V168.5ZM109 168.5H107V167.5H109V168.5ZM113 168.5H111V167.5H113V168.5ZM117 168.5H115V167.5H117V168.5ZM121 168.5H119V167.5H121V168.5ZM125 168.5H123V167.5H125V168.5ZM129 168.5H127V167.5H129V168.5ZM133 168.5H131V167.5H133V168.5ZM137 168.5H135V167.5H137V168.5ZM141 168.5H139V167.5H141V168.5ZM145 168.5H143V167.5H145V168.5ZM149 168.5H147V167.5H149V168.5ZM153 168.5H151V167.5H153V168.5ZM157 168.5H155V167.5H157V168.5ZM161 168.5H159V167.5H161V168.5ZM165 168.5H163V167.5H165V168.5ZM169 168.5H167V167.5H169V168.5ZM173 168.5H171V167.5H173V168.5ZM177 168.5H175V167.5H177V168.5ZM181 168.5H179V167.5H181V168.5ZM185 168.5H183V167.5H185V168.5ZM189 168.5H187V167.5H189V168.5ZM193 168.5H191V167.5H193V168.5ZM197 168.5H195V167.5H197V168.5ZM201 168.5H199V167.5H201V168.5ZM205 168.5H203V167.5H205V168.5ZM209 168.5H207V167.5H209V168.5ZM213 168.5H211V167.5H213V168.5ZM217 168.5H215V167.5H217V168.5ZM221 168.5H219V167.5H221V168.5ZM225 168.5H223V167.5H225V168.5ZM229 168.5H227V167.5H229V168.5ZM233 168.5H231V167.5H233V168.5ZM237 168.5H235V167.5H237V168.5ZM241 168.5H239V167.5H241V168.5ZM245 168.5H243V167.5H245V168.5ZM249 168.5H247V167.5H249V168.5ZM253 168.5H251V167.5H253V168.5ZM257 168.5H255V167.5H257V168.5ZM261 168.5H259V167.5H261V168.5ZM265 168.5H263V167.5H265V168.5ZM269 168.5H267V167.5H269V168.5ZM273 168.5H271V167.5H273V168.5ZM277 168.5H275V167.5H277V168.5ZM281 168.5H279V167.5H281V168.5ZM285 168.5H283V167.5H285V168.5ZM289 168.5H287V167.5H289V168.5ZM292 168.5H291V167.5H292V168.5Z" fill="#484848"/>
<path fill-rule="evenodd" clip-rule="evenodd" d="M13 72.5H12V71.5H13V72.5ZM17 72.5H15V71.5H17V72.5ZM21 72.5H19V71.5H21V72.5ZM25 72.5H23V71.5H25V72.5ZM29 72.5H27V71.5H29V72.5ZM33 72.5H31V71.5H33V72.5ZM37 72.5H35V71.5H37V72.5ZM41 72.5H39V71.5H41V72.5ZM45 72.5H43V71.5H45V72.5ZM49 72.5H47V71.5H49V72.5ZM53 72.5H51V71.5H53V72.5ZM57 72.5H55V71.5H57V72.5ZM61 72.5H59V71.5H61V72.5ZM65 72.5H63V71.5H65V72.5ZM69 72.5H67V71.5H69V72.5ZM73 72.5H71V71.5H73V72.5ZM77 72.5H75V71.5H77V72.5ZM81 72.5H79V71.5H81V72.5ZM85 72.5H83V71.5H85V72.5ZM89 72.5H87V71.5H89V72.5ZM93 72.5H91V71.5H93V72.5ZM97 72.5H95V71.5H97V72.5ZM101 72.5H99V71.5H101V72.5ZM105 72.5H103V71.5H105V72.5ZM109 72.5H107V71.5H109V72.5ZM113 72.5H111V71.5H113V72.5ZM117 72.5H115V71.5H117V72.5ZM121 72.5H119V71.5H121V72.5ZM125 72.5H123V71.5H125V72.5ZM129 72.5H127V71.5H129V72.5ZM133 72.5H131V71.5H133V72.5ZM137 72.5H135V71.5H137V72.5ZM141 72.5H139V71.5H141V72.5ZM145 72.5H143V71.5H145V72.5ZM149 72.5H147V71.5H149V72.5ZM153 72.5H151V71.5H153V72.5ZM157 72.5H155V71.5H157V72.5ZM161 72.5H159V71.5H161V72.5ZM165 72.5H163V71.5H165V72.5ZM169 72.5H167V71.5H169V72.5ZM173 72.5H171V71.5H173V72.5ZM177 72.5H175V71.5H177V72.5ZM181 72.5H179V71.5H181V72.5ZM185 72.5H183V71.5H185V72.5ZM189 72.5H187V71.5H189V72.5ZM193 72.5H191V71.5H193V72.5ZM197 72.5H195V71.5H197V72.5ZM201 72.5H199V71.5H201V72.5ZM205 72.5H203V71.5H205V72.5ZM209 72.5H207V71.5H209V72.5ZM213 72.5H211V71.5H213V72.5ZM217 72.5H215V71.5H217V72.5ZM221 72.5H219V71.5H221V72.5ZM225 72.5H223V71.5H225V72.5ZM229 72.5H227V71.5H229V72.5ZM233 72.5H231V71.5H233V72.5ZM237 72.5H235V71.5H237V72.5ZM241 72.5H239V71.5H241V72.5ZM245 72.5H243V71.5H245V72.5ZM249 72.5H247V71.5H249V72.5ZM253 72.5H251V71.5H253V72.5ZM257 72.5H255V71.5H257V72.5ZM261 72.5H259V71.5H261V72.5ZM265 72.5H263V71.5H265V72.5ZM269 72.5H267V71.5H269V72.5ZM273 72.5H271V71.5H273V72.5ZM277 72.5H275V71.5H277V72.5ZM281 72.5H279V71.5H281V72.5ZM285 72.5H283V71.5H285V72.5ZM289 72.5H287V71.5H289V72.5ZM292 72.5H291V71.5H292V72.5Z" fill="#484848"/>
<path d="M165.029 168L12.1465 103.888L108.861 72H115.248L17.8531 104.112L170.201 168H165.029Z" fill="#5C5C5C"/>
<path d="M292 12.977C291.998 12.8807 291.981 12.7831 291.95 12.6869C291.814 12.2741 291.434 12.0096 291.023 12H290.977C290.881 12.0023 290.783 12.0186 290.687 12.0503L108.861 72H115.248L291.313 13.9497C291.726 13.8136 291.99 13.4344 292 13.0234V12.977Z" fill="#16CA83"/>
<path d="M170.201 168H165.03L231.613 195.922C231.732 195.972 231.855 195.997 231.977 196H232.022C232.405 195.991 232.765 195.762 232.922 195.387C233.136 194.877 232.896 194.291 232.387 194.078L170.201 168Z" fill="#16CA83"/>
<defs>
<radialGradient id="paint0_radial_1459_1775" cx="0" cy="0" r="1" gradientUnits="userSpaceOnUse" gradientTransform="translate(152 104) rotate(90) scale(124.503 419.278)">
<stop stop-color="#666666" stop-opacity="0.64"/>
<stop offset="1" stop-color="#333333" stop-opacity="0"/>
</radialGradient>
<radialGradient id="paint1_radial_1459_1775" cx="0" cy="0" r="1" gradientUnits="userSpaceOnUse" gradientTransform="translate(152 104) rotate(90) scale(124.503 419.278)">
<stop stop-color="#666666" stop-opacity="0.64"/>
<stop offset="1" stop-color="#333333" stop-opacity="0"/>
</radialGradient>
<radialGradient id="paint2_radial_1459_1775" cx="0" cy="0" r="1" gradientUnits="userSpaceOnUse" gradientTransform="translate(152 104) rotate(90) scale(124.503 419.278)">
<stop stop-color="#666666" stop-opacity="0.64"/>
<stop offset="1" stop-color="#333333" stop-opacity="0"/>
</radialGradient>
<radialGradient id="paint3_radial_1459_1775" cx="0" cy="0" r="1" gradientUnits="userSpaceOnUse" gradientTransform="translate(152 104) rotate(90) scale(124.503 419.278)">
<stop stop-color="#666666" stop-opacity="0.64"/>
<stop offset="1" stop-color="#333333" stop-opacity="0"/>
</radialGradient>
<radialGradient id="paint4_radial_1459_1775" cx="0" cy="0" r="1" gradientUnits="userSpaceOnUse" gradientTransform="translate(152 104) rotate(90) scale(124.503 419.278)">
<stop stop-color="#666666" stop-opacity="0.64"/>
<stop offset="1" stop-color="#333333" stop-opacity="0"/>
</radialGradient>
<radialGradient id="paint5_radial_1459_1775" cx="0" cy="0" r="1" gradientUnits="userSpaceOnUse" gradientTransform="translate(152 104) rotate(90) scale(124.503 419.278)">
<stop stop-color="#666666" stop-opacity="0.64"/>
<stop offset="1" stop-color="#333333" stop-opacity="0"/>
</radialGradient>
<radialGradient id="paint6_radial_1459_1775" cx="0" cy="0" r="1" gradientUnits="userSpaceOnUse" gradientTransform="translate(152 104) rotate(90) scale(124.503 419.278)">
<stop stop-color="#666666" stop-opacity="0.64"/>
<stop offset="1" stop-color="#333333" stop-opacity="0"/>
</radialGradient>
<radialGradient id="paint7_radial_1459_1775" cx="0" cy="0" r="1" gradientUnits="userSpaceOnUse" gradientTransform="translate(152 104) rotate(90) scale(124.503 419.278)">
<stop stop-color="#666666" stop-opacity="0.64"/>
<stop offset="1" stop-color="#333333" stop-opacity="0"/>
</radialGradient>
<radialGradient id="paint8_radial_1459_1775" cx="0" cy="0" r="1" gradientUnits="userSpaceOnUse" gradientTransform="translate(152 104) rotate(90) scale(124.503 419.278)">
<stop stop-color="#666666" stop-opacity="0.64"/>
<stop offset="1" stop-color="#333333" stop-opacity="0"/>
</radialGradient>
<radialGradient id="paint9_radial_1459_1775" cx="0" cy="0" r="1" gradientUnits="userSpaceOnUse" gradientTransform="translate(152 104) rotate(90) scale(124.503 419.278)">
<stop stop-color="#666666" stop-opacity="0.64"/>
<stop offset="1" stop-color="#333333" stop-opacity="0"/>
</radialGradient>
<radialGradient id="paint10_radial_1459_1775" cx="0" cy="0" r="1" gradientUnits="userSpaceOnUse" gradientTransform="translate(152 104) rotate(90) scale(124.503 419.278)">
<stop stop-color="#666666" stop-opacity="0.64"/>
<stop offset="1" stop-color="#333333" stop-opacity="0"/>
</radialGradient>
<linearGradient id="paint11_linear_1459_1775" x1="114.606" y1="72" x2="113.824" y2="167.243" gradientUnits="userSpaceOnUse">
<stop stop-color="#333333" stop-opacity="0.48"/>
<stop offset="0.197917" stop-color="#333333" stop-opacity="0.24"/>
<stop offset="0.338542" stop-color="#333333" stop-opacity="0.12"/>
<stop offset="0.651042" stop-color="#333333" stop-opacity="0.24"/>
<stop offset="0.817708" stop-color="#333333" stop-opacity="0.48"/>
</linearGradient>
<linearGradient id="paint12_linear_1459_1775" x1="250" y1="168" x2="250" y2="196" gradientUnits="userSpaceOnUse">
<stop stop-color="#10935F" stop-opacity="0.32"/>
<stop offset="0.505208" stop-color="#10935F" stop-opacity="0.2"/>
<stop offset="1" stop-color="#10935F" stop-opacity="0.12"/>
</linearGradient>
<linearGradient id="paint13_linear_1459_1775" x1="232.333" y1="13" x2="232.333" y2="72" gradientUnits="userSpaceOnUse">
<stop stop-color="#10935F" stop-opacity="0.12"/>
<stop offset="0.489583" stop-color="#10935F" stop-opacity="0.2"/>
<stop offset="1" stop-color="#10935F" stop-opacity="0.32"/>
</linearGradient>
</defs>
</svg>
