<svg width="304" height="208" viewBox="0 0 304 208" fill="none" xmlns="http://www.w3.org/2000/svg">
<path d="M0 0H304V208H0V0Z" fill="#171717"/>
<path d="M292 24.0999H12V23.8999H292V24.0999Z" fill="url(#paint0_radial_2141_4000)" fill-opacity="0.6"/>
<path d="M292 40.0999H12V39.8999H292V40.0999Z" fill="url(#paint1_radial_2141_4000)" fill-opacity="0.6"/>
<path d="M12 56.0999H292V55.8999H12V56.0999Z" fill="url(#paint2_radial_2141_4000)" fill-opacity="0.6"/>
<path d="M292 72.0999H12V71.8999H292V72.0999Z" fill="url(#paint3_radial_2141_4000)" fill-opacity="0.6"/>
<path d="M12 88.0999H292V87.8999H12V88.0999Z" fill="url(#paint4_radial_2141_4000)" fill-opacity="0.6"/>
<path d="M292 104.1H12V103.9H292V104.1Z" fill="url(#paint5_radial_2141_4000)" fill-opacity="0.6"/>
<path d="M12 120.1H292V119.9H12V120.1Z" fill="url(#paint6_radial_2141_4000)" fill-opacity="0.6"/>
<path d="M292 136.1H12V135.9H292V136.1Z" fill="url(#paint7_radial_2141_4000)" fill-opacity="0.6"/>
<path d="M12 152.1H292V151.9H12V152.1Z" fill="url(#paint8_radial_2141_4000)" fill-opacity="0.6"/>
<path d="M292 168.1H12V167.9H292V168.1Z" fill="url(#paint9_radial_2141_4000)" fill-opacity="0.6"/>
<path d="M12 184.1H292V183.9H12V184.1Z" fill="url(#paint10_radial_2141_4000)" fill-opacity="0.6"/>
<path d="M12 136V104V40H167L17 104L112 136H12Z" fill="url(#paint11_linear_2141_4000)" fill-opacity="0.48"/>
<path d="M292 12H232L166 40H292V12Z" fill="url(#paint12_linear_2141_4000)" fill-opacity="0.8"/>
<path d="M292 195V136H113L292 195Z" fill="url(#paint13_linear_2141_4000)" fill-opacity="0.8"/>
<path fill-rule="evenodd" clip-rule="evenodd" d="M13 39.5H12V40.5H13V39.5ZM17 39.5H15V40.5H17V39.5ZM21 39.5H19V40.5H21V39.5ZM25 39.5H23V40.5H25V39.5ZM29 39.5H27V40.5H29V39.5ZM33 39.5H31V40.5H33V39.5ZM37 39.5H35V40.5H37V39.5ZM41 39.5H39V40.5H41V39.5ZM45 39.5H43V40.5H45V39.5ZM49 39.5H47V40.5H49V39.5ZM53 39.5H51V40.5H53V39.5ZM57 39.5H55V40.5H57V39.5ZM61 39.5H59V40.5H61V39.5ZM65 39.5H63V40.5H65V39.5ZM69 39.5H67V40.5H69V39.5ZM73 39.5H71V40.5H73V39.5ZM77 39.5H75V40.5H77V39.5ZM81 39.5H79V40.5H81V39.5ZM85 39.5H83V40.5H85V39.5ZM89 39.5H87V40.5H89V39.5ZM93 39.5H91V40.5H93V39.5ZM97 39.5H95V40.5H97V39.5ZM101 39.5H99V40.5H101V39.5ZM105 39.5H103V40.5H105V39.5ZM109 39.5H107V40.5H109V39.5ZM113 39.5H111V40.5H113V39.5ZM117 39.5H115V40.5H117V39.5ZM121 39.5H119V40.5H121V39.5ZM125 39.5H123V40.5H125V39.5ZM129 39.5H127V40.5H129V39.5ZM133 39.5H131V40.5H133V39.5ZM137 39.5H135V40.5H137V39.5ZM141 39.5H139V40.5H141V39.5ZM145 39.5H143V40.5H145V39.5ZM149 39.5H147V40.5H149V39.5ZM153 39.5H151V40.5H153V39.5ZM157 39.5H155V40.5H157V39.5ZM161 39.5H159V40.5H161V39.5ZM165 39.5H163V40.5H165V39.5ZM169 39.5H167V40.5H169V39.5ZM173 39.5H171V40.5H173V39.5ZM177 39.5H175V40.5H177V39.5ZM181 39.5H179V40.5H181V39.5ZM185 39.5H183V40.5H185V39.5ZM189 39.5H187V40.5H189V39.5ZM193 39.5H191V40.5H193V39.5ZM197 39.5H195V40.5H197V39.5ZM201 39.5H199V40.5H201V39.5ZM205 39.5H203V40.5H205V39.5ZM209 39.5H207V40.5H209V39.5ZM213 39.5H211V40.5H213V39.5ZM217 39.5H215V40.5H217V39.5ZM221 39.5H219V40.5H221V39.5ZM225 39.5H223V40.5H225V39.5ZM229 39.5H227V40.5H229V39.5ZM233 39.5H231V40.5H233V39.5ZM237 39.5H235V40.5H237V39.5ZM241 39.5H239V40.5H241V39.5ZM245 39.5H243V40.5H245V39.5ZM249 39.5H247V40.5H249V39.5ZM253 39.5H251V40.5H253V39.5ZM257 39.5H255V40.5H257V39.5ZM261 39.5H259V40.5H261V39.5ZM265 39.5H263V40.5H265V39.5ZM269 39.5H267V40.5H269V39.5ZM273 39.5H271V40.5H273V39.5ZM277 39.5H275V40.5H277V39.5ZM281 39.5H279V40.5H281V39.5ZM285 39.5H283V40.5H285V39.5ZM289 39.5H287V40.5H289V39.5ZM292 39.5H291V40.5H292V39.5Z" fill="#484848"/>
<path fill-rule="evenodd" clip-rule="evenodd" d="M13 135.5H12V136.5H13V135.5ZM17 135.5H15V136.5H17V135.5ZM21 135.5H19V136.5H21V135.5ZM25 135.5H23V136.5H25V135.5ZM29 135.5H27V136.5H29V135.5ZM33 135.5H31V136.5H33V135.5ZM37 135.5H35V136.5H37V135.5ZM41 135.5H39V136.5H41V135.5ZM45 135.5H43V136.5H45V135.5ZM49 135.5H47V136.5H49V135.5ZM53 135.5H51V136.5H53V135.5ZM57 135.5H55V136.5H57V135.5ZM61 135.5H59V136.5H61V135.5ZM65 135.5H63V136.5H65V135.5ZM69 135.5H67V136.5H69V135.5ZM73 135.5H71V136.5H73V135.5ZM77 135.5H75V136.5H77V135.5ZM81 135.5H79V136.5H81V135.5ZM85 135.5H83V136.5H85V135.5ZM89 135.5H87V136.5H89V135.5ZM93 135.5H91V136.5H93V135.5ZM97 135.5H95V136.5H97V135.5ZM101 135.5H99V136.5H101V135.5ZM105 135.5H103V136.5H105V135.5ZM109 135.5H107V136.5H109V135.5ZM113 135.5H111V136.5H113V135.5ZM117 135.5H115V136.5H117V135.5ZM121 135.5H119V136.5H121V135.5ZM125 135.5H123V136.5H125V135.5ZM129 135.5H127V136.5H129V135.5ZM133 135.5H131V136.5H133V135.5ZM137 135.5H135V136.5H137V135.5ZM141 135.5H139V136.5H141V135.5ZM145 135.5H143V136.5H145V135.5ZM149 135.5H147V136.5H149V135.5ZM153 135.5H151V136.5H153V135.5ZM157 135.5H155V136.5H157V135.5ZM161 135.5H159V136.5H161V135.5ZM165 135.5H163V136.5H165V135.5ZM169 135.5H167V136.5H169V135.5ZM173 135.5H171V136.5H173V135.5ZM177 135.5H175V136.5H177V135.5ZM181 135.5H179V136.5H181V135.5ZM185 135.5H183V136.5H185V135.5ZM189 135.5H187V136.5H189V135.5ZM193 135.5H191V136.5H193V135.5ZM197 135.5H195V136.5H197V135.5ZM201 135.5H199V136.5H201V135.5ZM205 135.5H203V136.5H205V135.5ZM209 135.5H207V136.5H209V135.5ZM213 135.5H211V136.5H213V135.5ZM217 135.5H215V136.5H217V135.5ZM221 135.5H219V136.5H221V135.5ZM225 135.5H223V136.5H225V135.5ZM229 135.5H227V136.5H229V135.5ZM233 135.5H231V136.5H233V135.5ZM237 135.5H235V136.5H237V135.5ZM241 135.5H239V136.5H241V135.5ZM245 135.5H243V136.5H245V135.5ZM249 135.5H247V136.5H249V135.5ZM253 135.5H251V136.5H253V135.5ZM257 135.5H255V136.5H257V135.5ZM261 135.5H259V136.5H261V135.5ZM265 135.5H263V136.5H265V135.5ZM269 135.5H267V136.5H269V135.5ZM273 135.5H271V136.5H273V135.5ZM277 135.5H275V136.5H277V135.5ZM281 135.5H279V136.5H281V135.5ZM285 135.5H283V136.5H285V135.5ZM289 135.5H287V136.5H289V135.5ZM292 135.5H291V136.5H292V135.5Z" fill="#484848"/>
<path d="M165.029 40L12.1465 104.112L108.861 136H115.248L17.8531 103.888L170.201 40H165.029Z" fill="#5C5C5C"/>
<path d="M292 195.023C291.998 195.119 291.981 195.217 291.95 195.313C291.814 195.726 291.434 195.99 291.023 196H290.977C290.881 195.998 290.783 195.981 290.687 195.95L108.861 136H115.248L291.313 194.05C291.726 194.186 291.99 194.566 292 194.977V195.023Z" fill="#16CA83"/>
<path d="M170.201 40H165.03L231.613 12.0778C231.732 12.0279 231.855 12.0028 231.977 12H232.022C232.405 12.0087 232.765 12.2377 232.922 12.6133C233.136 13.1226 232.896 13.7086 232.387 13.9222L170.201 40Z" fill="#16CA83"/>
<defs>
<radialGradient id="paint0_radial_2141_4000" cx="0" cy="0" r="1" gradientUnits="userSpaceOnUse" gradientTransform="translate(152 104) rotate(90) scale(124.503 419.278)">
<stop stop-color="#666666" stop-opacity="0.64"/>
<stop offset="1" stop-color="#333333" stop-opacity="0"/>
</radialGradient>
<radialGradient id="paint1_radial_2141_4000" cx="0" cy="0" r="1" gradientUnits="userSpaceOnUse" gradientTransform="translate(152 104) rotate(90) scale(124.503 419.278)">
<stop stop-color="#666666" stop-opacity="0.64"/>
<stop offset="1" stop-color="#333333" stop-opacity="0"/>
</radialGradient>
<radialGradient id="paint2_radial_2141_4000" cx="0" cy="0" r="1" gradientUnits="userSpaceOnUse" gradientTransform="translate(152 104) rotate(90) scale(124.503 419.278)">
<stop stop-color="#666666" stop-opacity="0.64"/>
<stop offset="1" stop-color="#333333" stop-opacity="0"/>
</radialGradient>
<radialGradient id="paint3_radial_2141_4000" cx="0" cy="0" r="1" gradientUnits="userSpaceOnUse" gradientTransform="translate(152 104) rotate(90) scale(124.503 419.278)">
<stop stop-color="#666666" stop-opacity="0.64"/>
<stop offset="1" stop-color="#333333" stop-opacity="0"/>
</radialGradient>
<radialGradient id="paint4_radial_2141_4000" cx="0" cy="0" r="1" gradientUnits="userSpaceOnUse" gradientTransform="translate(152 104) rotate(90) scale(124.503 419.278)">
<stop stop-color="#666666" stop-opacity="0.64"/>
<stop offset="1" stop-color="#333333" stop-opacity="0"/>
</radialGradient>
<radialGradient id="paint5_radial_2141_4000" cx="0" cy="0" r="1" gradientUnits="userSpaceOnUse" gradientTransform="translate(152 104) rotate(90) scale(124.503 419.278)">
<stop stop-color="#666666" stop-opacity="0.64"/>
<stop offset="1" stop-color="#333333" stop-opacity="0"/>
</radialGradient>
<radialGradient id="paint6_radial_2141_4000" cx="0" cy="0" r="1" gradientUnits="userSpaceOnUse" gradientTransform="translate(152 104) rotate(90) scale(124.503 419.278)">
<stop stop-color="#666666" stop-opacity="0.64"/>
<stop offset="1" stop-color="#333333" stop-opacity="0"/>
</radialGradient>
<radialGradient id="paint7_radial_2141_4000" cx="0" cy="0" r="1" gradientUnits="userSpaceOnUse" gradientTransform="translate(152 104) rotate(90) scale(124.503 419.278)">
<stop stop-color="#666666" stop-opacity="0.64"/>
<stop offset="1" stop-color="#333333" stop-opacity="0"/>
</radialGradient>
<radialGradient id="paint8_radial_2141_4000" cx="0" cy="0" r="1" gradientUnits="userSpaceOnUse" gradientTransform="translate(152 104) rotate(90) scale(124.503 419.278)">
<stop stop-color="#666666" stop-opacity="0.64"/>
<stop offset="1" stop-color="#333333" stop-opacity="0"/>
</radialGradient>
<radialGradient id="paint9_radial_2141_4000" cx="0" cy="0" r="1" gradientUnits="userSpaceOnUse" gradientTransform="translate(152 104) rotate(90) scale(124.503 419.278)">
<stop stop-color="#666666" stop-opacity="0.64"/>
<stop offset="1" stop-color="#333333" stop-opacity="0"/>
</radialGradient>
<radialGradient id="paint10_radial_2141_4000" cx="0" cy="0" r="1" gradientUnits="userSpaceOnUse" gradientTransform="translate(152 104) rotate(90) scale(124.503 419.278)">
<stop stop-color="#666666" stop-opacity="0.64"/>
<stop offset="1" stop-color="#333333" stop-opacity="0"/>
</radialGradient>
<linearGradient id="paint11_linear_2141_4000" x1="114.606" y1="136" x2="113.824" y2="40.7571" gradientUnits="userSpaceOnUse">
<stop stop-color="#333333" stop-opacity="0.48"/>
<stop offset="0.197917" stop-color="#333333" stop-opacity="0.24"/>
<stop offset="0.338542" stop-color="#333333" stop-opacity="0.12"/>
<stop offset="0.651042" stop-color="#333333" stop-opacity="0.24"/>
<stop offset="0.817708" stop-color="#333333" stop-opacity="0.48"/>
</linearGradient>
<linearGradient id="paint12_linear_2141_4000" x1="250" y1="40" x2="250" y2="12" gradientUnits="userSpaceOnUse">
<stop stop-color="#10935F" stop-opacity="0.32"/>
<stop offset="0.505208" stop-color="#10935F" stop-opacity="0.2"/>
<stop offset="1" stop-color="#10935F" stop-opacity="0.12"/>
</linearGradient>
<linearGradient id="paint13_linear_2141_4000" x1="232.333" y1="195" x2="232.333" y2="136" gradientUnits="userSpaceOnUse">
<stop stop-color="#10935F" stop-opacity="0.12"/>
<stop offset="0.489583" stop-color="#10935F" stop-opacity="0.2"/>
<stop offset="1" stop-color="#10935F" stop-opacity="0.32"/>
</linearGradient>
</defs>
</svg>
